<?xml version="1.0" encoding="UTF-8"?>
<svg version="1.1" xmlns="http://www.w3.org/2000/svg" width="1024" height="1024">
<path d="M0 0 C337.92 0 675.84 0 1024 0 C1024 337.92 1024 675.84 1024 1024 C686.08 1024 348.16 1024 0 1024 C0 686.08 0 348.16 0 0 Z " fill="#000000" transform="translate(0,0)"/>
<path d="M0 0 C7.40512682 5.32855686 11.83805434 11.39708034 14.25 20.25 C14.81427168 25.43790049 14.79826164 30.59313393 14.76898193 35.80288696 C14.77486459 37.37069933 14.78249549 38.93850593 14.791713 40.50630224 C14.8119035 44.79360579 14.80743768 49.08057712 14.79880548 53.36790633 C14.79384964 57.99903162 14.81195919 62.63007465 14.82722473 67.26116943 C14.85051357 75.27791879 14.8592863 83.29457774 14.85811615 91.31135941 C14.85644543 102.90216623 14.87679674 114.4928527 14.90247145 126.08362739 C14.94353418 144.89021838 14.96686073 163.6967877 14.97900391 182.50341797 C14.99083582 200.76906416 15.0110392 219.03466955 15.04248047 237.30029297 C15.04538462 238.98997861 15.04538462 238.98997861 15.04834744 240.71379931 C15.05811216 246.36507215 15.06804125 252.01634468 15.07805204 257.66761708 C15.16084979 304.52839148 15.21485091 351.38916726 15.25 398.25 C16.08653893 397.40654762 16.08653893 397.40654762 16.93997765 396.54605579 C30.53169937 382.84375145 44.13736107 369.15543199 57.75853539 355.48240376 C64.3453933 348.869801 70.92750895 342.25260584 77.49853516 335.62426758 C83.22808715 329.84476689 88.96647317 324.0742088 94.71548998 318.31406754 C97.75722935 315.2658289 100.79446421 312.21339625 103.82114792 309.1502018 C106.67482186 306.26238732 109.54023518 303.38674826 112.4147644 300.51969719 C113.46313658 299.46995852 114.50728795 298.41598324 115.54664993 297.35732269 C124.00229435 288.75255278 132.33388338 282.19775655 144.8125 281.9375 C155.64329915 282.07107615 162.23961655 285.36569595 170.046875 292.8046875 C176.95095976 300.46773193 178.65098347 307.77560763 178.515625 317.87109375 C177.22078748 334.3421887 160.25893295 346.39914898 149.31640625 357.3605957 C147.71375723 358.9695207 146.11129447 360.57863124 144.50900269 362.18791199 C139.280387 367.43741529 134.04657376 372.68172094 128.8125 377.92578125 C127.00453492 379.737798 125.19660255 381.54984741 123.38870239 383.36192894 C115.87052755 390.89694162 108.35125501 398.43085426 100.82829285 405.96108723 C98.88454237 407.90674709 96.94079741 409.85241248 94.99707031 411.7980957 C94.5140598 412.28158996 94.03104928 412.76508421 93.53340209 413.26322981 C85.69574418 421.10920214 77.86665449 428.96366679 70.04106867 436.82167802 C61.98560387 444.91024593 53.92244023 452.99105825 45.85216808 461.06485623 C41.32938873 465.589984 36.80996366 470.1183453 32.2986145 474.65487099 C28.05887058 478.91789821 23.8096998 483.17129826 19.55316544 487.41755867 C17.99569748 488.97453143 16.44162992 490.53491447 14.89129257 492.09898758 C12.76930257 494.23871863 10.6352306 496.36565016 8.49780273 498.48994446 C7.58916143 499.41503963 7.58916143 499.41503963 6.66216373 500.3588236 C-1.53787722 508.43830574 -9.4561782 511.59887132 -20.89916992 511.63061523 C-38.18238565 511.21628444 -51.28102651 492.88357396 -62.66113281 481.54760742 C-64.24874861 479.96954737 -65.83653197 478.39165588 -67.42446899 476.81391907 C-72.60456006 471.66498697 -77.77930226 466.51069848 -82.953125 461.35546875 C-83.83601417 460.47587691 -84.71890333 459.59628506 -85.62854671 458.69003892 C-93.96432206 450.38501127 -102.29814545 442.07802861 -110.6269722 433.76603222 C-112.54750881 431.84944394 -114.46807283 429.93288314 -116.38867188 428.01635742 C-116.86592259 427.54011507 -117.34317331 427.06387271 -117.83488616 426.57319877 C-125.57395248 418.85115622 -133.32500139 411.14125578 -141.08091441 403.43613788 C-149.06813191 395.50079706 -157.04364545 387.55383105 -165.00883365 379.59636766 C-169.47164327 375.13850354 -173.93932792 370.68579996 -178.41953278 366.24541283 C-182.63198217 362.06991897 -186.82987513 357.88031636 -191.01725388 353.67968559 C-192.55109097 352.14590227 -194.09002454 350.61719505 -195.63453293 349.09415817 C-215.67624913 329.31615013 -215.67624913 329.31615013 -216.0625 315.1875 C-215.95170247 305.85588569 -212.0685752 298.019902 -205.75 291.25 C-197.94588159 284.10971739 -190.61347077 281.59705515 -180.0546875 281.9140625 C-164.66221768 283.47878165 -155.49961922 295.34676043 -145.15966797 305.72680664 C-144.14364275 306.74311478 -143.12739561 307.7592011 -142.11094666 308.77508545 C-139.38417691 311.5015713 -136.66047543 314.23110287 -133.9373641 316.96124196 C-131.07912624 319.82578194 -128.21800729 322.68744149 -125.35720825 325.54942322 C-119.95459219 330.95513254 -114.55452766 336.36338313 -109.1554023 341.77257866 C-103.00250789 347.93669686 -96.84673307 354.09793519 -90.6907289 360.25894749 C-78.04063857 372.91945676 -65.39412361 385.58353188 -52.75 398.25 C-52.74910437 397.06603245 -52.74910437 397.06603245 -52.74819064 395.85814637 C-52.71229126 349.06984529 -52.6556439 302.28160873 -52.57207905 255.49336727 C-52.56206168 249.87456607 -52.55221753 244.25576458 -52.54248047 238.63696289 C-52.53956841 236.9590702 -52.53956841 236.9590702 -52.53659752 235.24728069 C-52.50558236 217.13874101 -52.48859821 199.030214 -52.47680578 180.92165276 C-52.46439173 162.33850957 -52.43688454 143.75543285 -52.39538693 125.17233163 C-52.37025889 113.70695725 -52.35688222 102.24169312 -52.35857043 90.77629081 C-52.3586002 82.91242303 -52.34396007 75.04866748 -52.31783572 67.18484344 C-52.30319829 62.64883867 -52.29497956 58.11306406 -52.30419731 53.57703972 C-52.31250258 49.41962068 -52.30227934 45.26266351 -52.27766338 41.10531286 C-52.27199374 39.6058102 -52.27297348 38.10626356 -52.28148755 36.60677435 C-52.34547272 24.27577823 -50.5146248 13.62041209 -41.91796875 4.25390625 C-29.96248259 -7.48616574 -14.07310189 -8.84594976 0 0 Z " fill="#FDFDFD" transform="translate(530.75,250.75)"/>
</svg>
